<svg xmlns="http://www.w3.org/2000/svg" viewBox="0 0 469.61 606.06"><defs><style>.cls-1{fill:#fff;}</style></defs><g id="Layer_2" data-name="Layer 2"><g id="Layer_1-2" data-name="Layer 1"><path class="cls-1" d="M469.61,96.1V389.54a93.52,93.52,0,0,1-93.53,93.53H137.15a2.51,2.51,0,0,0-2.51,2.5v89.84a30.64,30.64,0,0,1-30.58,30.65H30.58A30.64,30.64,0,0,1,0,575.41V176.48a30.64,30.64,0,0,1,30.58-30.65h73.48a30.64,30.64,0,0,1,30.58,30.65V344.8a2.5,2.5,0,0,0,2.5,2.5h173a23.67,23.67,0,0,0,23.72-23.65V173.48c1.27-23,0-37.24-23.45-37.71H171.12A25.14,25.14,0,0,1,146,110.63V34.68A34.68,34.68,0,0,1,180.64,0H373.51A96.1,96.1,0,0,1,469.61,96.1Z"/></g></g></svg>