<svg xmlns="http://www.w3.org/2000/svg" viewBox="0 0 663.36 663.36"><defs><style>.cls-1{fill:#fff;}</style></defs><g id="Layer_2" data-name="Layer 2"><g id="Layer_1-2" data-name="Layer 1"><rect width="663.36" height="663.36" rx="87.7"/><path class="cls-1" d="M486.88,194.91v194a61.82,61.82,0,0,1-61.82,61.82H267.13a1.65,1.65,0,0,0-1.65,1.65v59.38A20.25,20.25,0,0,1,245.27,532H196.7a20.25,20.25,0,0,1-20.21-20.26V248a20.25,20.25,0,0,1,20.21-20.25h48.57A20.25,20.25,0,0,1,265.48,248V359.29a1.65,1.65,0,0,0,1.65,1.65H381.46a15.64,15.64,0,0,0,15.68-15.63V246.06c.83-15.24,0-24.61-15.5-24.92H289.59A16.63,16.63,0,0,1,273,204.51V154.32a22.92,22.92,0,0,1,22.92-22.92H423.36A63.51,63.51,0,0,1,486.88,194.91Z"/></g></g></svg>